<svg height="512" viewBox="0 0 512 512" width="512" xmlns="http://www.w3.org/2000/svg"><path d="m416 152h-24v72h-168v-110.16a91.135 91.135 0 0 1 .58-10.24 89.874 89.874 0 0 1 176.46-11.52l.98 3.92z" fill="#3d4d63"/><path d="m416 152h-108a28 28 0 0 1 0-56h94.02z" fill="#fec9a3"/><circle cx="344" cy="112" fill="#95573a" r="16"/><path d="m352 176h40v16h-40z" fill="#2a3845"/><path d="m456 250.08v213.92h-400v-213.92a26.085 26.085 0 0 1 26.08-26.08h347.84a26.085 26.085 0 0 1 26.08 26.08z" fill="#4db7e5"/><path d="m456 250.08v213.92h-296l240-240h29.92a26.085 26.085 0 0 1 26.08 26.08z" fill="#48add9"/><g fill="#2a71ad"><path d="m80 248h16v16h-16z"/><path d="m112 248h16v16h-16z"/><path d="m144 248h16v16h-16z"/></g><path d="m224 128v64l25.636-16.947a14.766 14.766 0 0 1 19.883 4.471 14.765 14.765 0 0 1 -4.1 20.476l-33.419 24h-136v-96a16 16 0 0 1 16-16 16 16 0 0 1 16 16 16 16 0 0 1 16-16 16 16 0 0 1 16 16 16 16 0 0 1 16-16 16 16 0 0 1 16 16 16 16 0 0 1 16-16 16 16 0 0 1 16 16z" fill="#348fd9"/><rect fill="#2a71ad" height="48" rx="8" width="16" x="120" y="120"/><rect fill="#2a71ad" height="48" rx="8" width="16" x="152" y="120"/><rect fill="#2a71ad" height="48" rx="8" width="16" x="184" y="120"/><path d="m256 176h-6.216c-20.878 0-39.56-15.222-41.588-36a40.046 40.046 0 0 1 39.804-44h8a8 8 0 0 1 8 8 8 8 0 0 1 -8 8h-7.052c-11.608 0-22.269 7.822-24.483 19.217a24.039 24.039 0 0 0 23.535 28.783h8a8 8 0 0 1 8 8 8 8 0 0 1 -8 8z" fill="#2e3e51"/><path d="m248 368h56l48 32v-32h24a24 24 0 0 0 24-24v-64a24 24 0 0 0 -24-24h-128a24 24 0 0 0 -24 24v64a24 24 0 0 0 24 24z" fill="#ffb531"/><path d="m232 384h-24l-56 32 8-32h-24a24 24 0 0 1 -24-24v-48a24 24 0 0 1 24-24h96a24 24 0 0 1 24 24v48a24 24 0 0 1 -24 24z" fill="#f35244"/><path d="m344 288h32v16h-32z" fill="#e8770c"/><path d="m280 288h48v16h-48z" fill="#e8770c"/><path d="m280 320h96v16h-96z" fill="#e8770c"/><path d="m144 312h80v16h-80z" fill="#d93e30"/><path d="m144 344h80v16h-80z" fill="#d93e30"/><path d="m464 488h-416a24 24 0 0 1 -24-24v-16h178.343a13.658 13.658 0 0 1 9.657 4 13.658 13.658 0 0 0 9.657 4h68.686a13.658 13.658 0 0 0 9.657-4 13.658 13.658 0 0 1 9.657-4h178.343v16a24 24 0 0 1 -24 24z" fill="#d6d6d4"/><path d="m456 448v16a24 24 0 0 1 -24 24h32a24 24 0 0 0 24-24v-16z" fill="#c7c7c5"/></svg>